HIERARCHY
ROOT Hips
{
 OFFSET 0.000000 0.000000 0.000000
 CHANNELS 6 Xposition Yposition Zposition Yrotation Xrotation Zrotation
 JOINT Chest
 {
  OFFSET 0.000000 10.383400 0.001500
  CHANNELS 3 Yrotation Xrotation Zrotation
  JOINT Chest2
  {
   OFFSET 0.000000 10.418200 -0.003100
   CHANNELS 3 Yrotation Xrotation Zrotation
   JOINT Chest3
   {
    OFFSET 0.000000 10.375100 0.000000
    CHANNELS 3 Yrotation Xrotation Zrotation
    JOINT Chest4
    {
     OFFSET 0.000000 10.364600 0.000000
     CHANNELS 3 Yrotation Xrotation Zrotation
     JOINT Neck
     {
      OFFSET 0.000000 15.642200 0.000000
      CHANNELS 3 Yrotation Xrotation Zrotation
      JOINT Head
      {
       OFFSET 0.000000 9.697300 -0.006500
       CHANNELS 3 Yrotation Xrotation Zrotation
       End Site
       {
        OFFSET 0.000000 18.492200 -0.003400
       }
      }
     }
     JOINT RightCollar
     {
      OFFSET -3.166800 10.349300 0.000000
      CHANNELS 3 Yrotation Xrotation Zrotation
      JOINT RightShoulder
      {
       OFFSET -14.729700 0.000000 0.000000
       CHANNELS 3 Yrotation Xrotation Zrotation
       JOINT RightElbow
       {
        OFFSET 0.000000 -32.224300 0.000000
        CHANNELS 3 Yrotation Xrotation Zrotation
        JOINT RightWrist
        {
         OFFSET 0.000000 -26.084100 0.000000
         CHANNELS 3 Yrotation Xrotation Zrotation
         End Site
         {
          OFFSET 0.000000 -19.319400 0.000000
         }
        }
       }
      }
     }
     JOINT LeftCollar
     {
      OFFSET 3.166800 10.349300 0.000000
      CHANNELS 3 Yrotation Xrotation Zrotation
      JOINT LeftShoulder
      {
       OFFSET 14.729700 0.000000 0.000000
       CHANNELS 3 Yrotation Xrotation Zrotation
       JOINT LeftElbow
       {
        OFFSET 0.000000 -32.224300 0.000000
        CHANNELS 3 Yrotation Xrotation Zrotation
        JOINT LeftWrist
        {
         OFFSET 0.000000 -26.084100 0.000000
         CHANNELS 3 Yrotation Xrotation Zrotation
         End Site
         {
          OFFSET 0.000000 -19.319400 0.000000
         }
        }
       }
      }
     }
    }
   }
  }
 }
 JOINT RightHip
 {
  OFFSET -8.428900 -0.007500 -0.000800
  CHANNELS 3 Yrotation Xrotation Zrotation
  JOINT RightKnee
  {
   OFFSET 0.000000 -43.834600 0.000700
   CHANNELS 3 Yrotation Xrotation Zrotation
   JOINT RightAnkle
   {
    OFFSET 0.000000 -42.757000 0.001200
    CHANNELS 3 Yrotation Xrotation Zrotation
    JOINT RightToe
    {
     OFFSET 0.000000 -6.946900 15.649300
     CHANNELS 3 Yrotation Xrotation Zrotation
     End Site
     {
      OFFSET 0.000000 -1.580800 6.825800
     }
    }
   }
  }
 }
 JOINT LeftHip
 {
  OFFSET 8.428900 -0.007500 -0.000800
  CHANNELS 3 Yrotation Xrotation Zrotation
  JOINT LeftKnee
  {
   OFFSET 0.000000 -43.834600 0.000700
   CHANNELS 3 Yrotation Xrotation Zrotation
   JOINT LeftAnkle
   {
    OFFSET 0.000000 -42.757000 0.001200
    CHANNELS 3 Yrotation Xrotation Zrotation
    JOINT LeftToe
    {
     OFFSET 0.000000 -6.946900 15.649300
     CHANNELS 3 Yrotation Xrotation Zrotation
     End Site
     {
      OFFSET 0.000000 -1.580800 6.825800
     }
    }
   }
  }
 }
}
MOTION
Frames: 16
Frame Time: 0.008333
-0.774634 126.369848 -5.824091 173.821536 -18.528618 -3.741337 -1.550062 14.647664 1.085014 -0.149713 1.310721 0.112894 -0.251039 2.210922 0.188407 -1.400028 13.090913 0.987910 -6.998961 18.121032 0.820058 -7.805462 -6.347458 2.547634 0.775431 3.065749 -0.612436 1.916657 -13.337638 -1.790820 -43.308315 -39.606272 40.852461 -7.881932 -11.477323 -12.623202 -1.769083 3.609065 -0.391608 12.240536 -13.864031 -3.319176 66.403904 -17.470913 -59.958756 15.429398 -2.165179 -8.698554 7.798640 -53.018236 6.355834 -43.127750 81.284382 -39.507074 -5.998329 -19.377394 5.012839 -0.004443 -0.004499 -0.001972 -2.090228 -54.405512 -0.316039 109.520991 79.610876 114.387299 8.977012 -6.462828 -5.861671 -0.001373 -0.000407 -0.000609
-0.773579 126.367705 -5.827806 173.821173 -18.494639 -3.734425 -1.548402 14.631722 1.085426 -0.143211 1.329391 0.118165 -0.257007 2.192231 0.184107 -1.387197 13.109111 0.996964 -7.030151 18.083044 0.831592 -7.822926 -6.379227 2.550762 0.773879 3.125403 -0.565749 1.860035 -13.364299 -1.706302 -43.863942 -39.601987 41.047579 -8.035189 -11.454766 -12.407310 -1.790271 3.662443 -0.420002 12.244305 -13.912915 -3.296179 66.587617 -17.433889 -59.918825 15.482422 -2.183893 -8.745929 7.828925 -53.051974 6.334218 -43.136427 81.286583 -39.512781 -6.013388 -19.365663 5.013880 -0.003128 -0.004066 -0.001388 -2.077570 -54.436752 -0.328462 109.518917 79.614530 114.385168 8.976589 -6.460329 -5.861031 -0.004155 -0.001064 -0.001844
-0.775356 126.363173 -5.825780 173.827992 -18.422907 -3.717157 -1.547050 14.607182 1.083394 -0.145802 1.319843 0.116002 -0.263997 2.172825 0.180327 -1.376669 13.127460 1.003420 -7.051811 18.044986 0.842170 -7.826728 -6.390796 2.543928 0.782493 3.184610 -0.514825 1.787912 -13.416006 -1.650789 -44.490329 -39.565152 41.246885 -8.191589 -11.452677 -12.246355 -1.822929 3.784716 -0.478154 12.294693 -14.011043 -3.256907 66.793967 -17.367650 -59.914443 15.559434 -2.205857 -8.803073 7.863533 -53.121584 6.288053 -43.087555 81.294543 -39.476290 -6.026221 -19.359836 5.026147 -0.007731 -0.002780 -0.003432 -2.060572 -54.505919 -0.359717 109.491641 79.618265 114.364125 8.966521 -6.456354 -5.867166 -0.000601 0.002044 -0.000267
-0.774220 126.360947 -5.830524 173.835143 -18.391332 -3.711631 -1.538128 14.624980 1.091020 -0.156991 1.289628 0.110746 -0.246202 2.220241 0.191835 -1.396304 13.079289 0.994907 -7.047935 18.050710 0.854659 -7.856008 -6.444802 2.559322 0.807851 3.259903 -0.458092 1.704091 -13.470695 -1.604478 -45.174717 -39.533920 41.432200 -8.340856 -11.469047 -12.160607 -1.849214 3.878191 -0.521977 12.373125 -14.080641 -3.245699 67.021958 -17.281575 -59.894770 15.658057 -2.244515 -8.860082 7.876741 -53.151853 6.269292 -43.058568 81.303305 -39.451251 -6.025032 -19.355169 5.026870 -0.007676 -0.005448 -0.003407 -2.055414 -54.534301 -0.371356 109.484122 79.623161 114.358987 8.963325 -6.452905 -5.867417 -0.001101 0.000442 -0.000489
-0.773019 126.358129 -5.833802 173.846419 -18.350939 -3.708350 -1.539835 14.616392 1.092356 -0.150729 1.311491 0.113586 -0.249898 2.211696 0.190145 -1.391562 13.092860 0.998408 -7.047424 18.020691 0.857867 -7.874662 -6.479655 2.578790 0.824936 3.296312 -0.401636 1.607334 -13.519020 -1.545448 -45.908261 -39.524764 41.596881 -8.482822 -11.503857 -12.165301 -1.890696 3.907431 -0.562312 12.470533 -14.133030 -3.245808 67.288576 -17.170963 -59.878708 15.768763 -2.304068 -8.907456 7.877807 -53.191493 6.256238 -43.043990 81.312515 -39.442960 -6.015689 -19.347963 5.016414 -0.006635 -0.005940 -0.002945 -2.057094 -54.571392 -0.382076 109.448590 79.628783 114.331300 8.958486 -6.443088 -5.871859 0.000420 -0.000667 0.000186
-0.771410 126.354945 -5.836009 173.853709 -18.305687 -3.706422 -1.545924 14.582332 1.091394 -0.138898 1.358192 0.118067 -0.249491 2.214372 0.190248 -1.388329 13.100186 0.998716 -7.036947 17.991505 0.861605 -7.879336 -6.510134 2.587399 0.841325 3.324635 -0.349838 1.500146 -13.563718 -1.470811 -46.693234 -39.515873 41.747861 -8.630587 -11.564117 -12.266865 -1.936698 3.930778 -0.603428 12.580161 -14.189894 -3.249718 67.599700 -17.037143 -59.871745 15.880348 -2.381497 -8.946542 7.868751 -53.237043 6.272948 -43.147473 81.302394 -39.560736 -6.025697 -19.345611 5.018183 0.001605 -0.007984 0.000712 -2.067402 -54.613854 -0.380550 109.445138 79.636647 114.327873 8.968228 -6.436796 -5.880171 0.003599 0.000542 0.001598
-0.770572 126.352278 -5.840113 173.857507 -18.272452 -3.697827 -1.542899 14.593959 1.087892 -0.143793 1.337069 0.118030 -0.244571 2.243304 0.193574 -1.384647 13.109925 0.998554 -7.015246 17.974887 0.860650 -7.869950 -6.536546 2.591368 0.856764 3.358464 -0.309830 1.390530 -13.611245 -1.383289 -47.529576 -39.479302 41.886841 -8.818222 -11.661799 -12.454227 -1.976428 3.965828 -0.648477 12.686205 -14.256520 -3.256884 67.953397 -16.888371 -59.868008 15.992153 -2.479050 -8.985388 7.874534 -53.270277 6.269134 -43.139007 81.318522 -39.568078 -6.037628 -19.350860 5.018572 0.002143 -0.009491 0.000951 -2.073247 -54.646921 -0.387354 109.448978 79.637198 114.325310 8.979979 -6.427527 -5.883319 0.003445 -0.002185 0.001529
-0.770410 126.349577 -5.844289 173.857973 -18.240902 -3.684380 -1.530408 14.645631 1.091260 -0.155281 1.277753 0.110394 -0.239312 2.274897 0.195067 -1.378835 13.122608 0.998165 -6.989047 17.956904 0.859815 -7.794440 -6.540327 2.559608 0.862113 3.386840 -0.277656 1.288873 -13.668024 -1.294745 -48.441989 -39.380500 42.036655 -9.077644 -11.799931 -12.708513 -2.003425 3.947462 -0.668945 12.776148 -14.275491 -3.276628 68.344276 -16.728397 -59.867601 16.112622 -2.597318 -9.027388 7.889521 -53.301802 6.256029 -43.147549 81.332366 -39.590211 -6.043641 -19.357193 5.019996 0.002557 -0.010623 0.001135 -2.087019 -54.671720 -0.383480 109.432111 79.642685 114.291891 8.966870 -6.424749 -5.876174 0.000146 -0.000475 0.000065
-0.769971 126.346943 -5.848531 173.858773 -18.211113 -3.672745 -1.521924 14.676980 1.088874 -0.147319 1.320928 0.114087 -0.254394 2.198726 0.189007 -1.374974 13.129649 0.998008 -6.950145 17.972436 0.854771 -7.745095 -6.558495 2.546131 0.866252 3.447551 -0.252930 1.199502 -13.733648 -1.216096 -49.462323 -39.185171 42.236547 -9.400278 -11.976673 -13.015824 -2.021645 3.964094 -0.688736 12.865320 -14.298329 -3.297742 68.769606 -16.555168 -59.877470 16.245200 -2.729766 -9.069344 7.899446 -53.333144 6.245385 -43.225968 81.343318 -39.678616 -6.035165 -19.363387 5.016557 0.004382 -0.011714 0.001945 -2.088617 -54.698759 -0.389459 109.425009 79.652077 114.272424 8.975516 -6.414723 -5.869925 -0.003292 -0.001669 -0.001461
-0.768545 126.344327 -5.852498 173.854069 -18.181155 -3.665597 -1.506763 14.695618 1.090817 -0.146218 1.324100 0.113999 -0.249082 2.218203 0.189637 -1.359278 13.148002 0.997050 -6.922684 17.931334 0.865600 -7.710839 -6.586325 2.546530 0.839858 3.451787 -0.230051 1.118098 -13.808290 -1.155425 -50.593165 -38.881207 42.508243 -9.757065 -12.180882 -13.364590 -2.085842 4.078002 -0.740318 12.987099 -14.477188 -3.315118 69.217885 -16.364707 -59.904251 16.387490 -2.872086 -9.112541 7.906043 -53.366973 6.242669 -43.303123 81.346649 -39.760759 -6.026671 -19.351235 5.008454 0.004685 -0.009854 0.002079 -2.093139 -54.726775 -0.387430 109.422198 79.651233 114.262314 8.989361 -6.405981 -5.877106 -0.001659 -0.002284 -0.000737
-0.767185 126.341898 -5.857140 173.848589 -18.154359 -3.658439 -1.490035 14.717319 1.092273 -0.148434 1.314077 0.113728 -0.239816 2.249807 0.189986 -1.342819 13.164077 0.995222 -6.892854 17.889492 0.880503 -7.672684 -6.614902 2.549341 0.806588 3.456900 -0.212719 1.030036 -13.889389 -1.112228 -51.791144 -38.489279 42.835054 -10.116101 -12.396015 -13.733386 -2.145522 4.142381 -0.768988 13.123676 -14.595227 -3.340442 69.676542 -16.149684 -59.951265 16.531923 -3.015860 -9.166465 7.918525 -53.394072 6.232957 -43.339657 81.347500 -39.798247 -6.019763 -19.350999 5.005945 0.003157 -0.010663 0.001401 -2.098093 -54.751938 -0.386267 109.427511 79.648760 114.263070 8.995166 -6.399246 -5.880898 -0.000747 -0.004173 -0.000331
-0.765194 126.340429 -5.864741 173.847736 -18.142963 -3.655702 -1.474636 14.754398 1.094363 -0.147426 1.316204 0.113449 -0.243693 2.239863 0.190871 -1.326883 13.187303 0.990806 -6.853033 17.866783 0.893082 -7.630407 -6.642722 2.553284 0.781096 3.437269 -0.199718 0.917724 -13.927856 -1.079808 -52.984352 -38.051255 43.172985 -10.441427 -12.608654 -14.082888 -2.197268 4.191685 -0.788340 13.209511 -14.692517 -3.350449 70.204443 -15.897653 -59.999729 16.666444 -3.145959 -9.239507 7.911739 -53.408654 6.242697 -43.437145 81.350792 -39.904483 -6.019378 -19.344488 5.009592 -0.000570 -0.012682 -0.000253 -2.109658 -54.760419 -0.384143 109.436593 79.646659 114.268776 9.017936 -6.392010 -5.890605 0.001922 -0.007486 0.000853
-0.765211 126.337407 -5.868416 173.847688 -18.104566 -3.645877 -1.470688 14.740023 1.086780 -0.133620 1.355316 0.111056 -0.261531 2.189889 0.194629 -1.316488 13.205246 0.987294 -6.801098 17.876242 0.893349 -7.585356 -6.668388 2.558702 0.765706 3.448824 -0.191585 0.781025 -13.964898 -1.062214 -54.113651 -37.611778 43.485793 -10.704919 -12.800244 -14.381615 -2.235832 4.264580 -0.811642 13.411374 -14.734594 -3.378696 70.638398 -15.619336 -60.100372 16.788007 -3.258832 -9.334044 7.901948 -53.451505 6.246143 -43.550033 81.347287 -40.040297 -6.000607 -19.330755 5.014252 -0.001855 -0.012650 -0.000823 -2.113669 -54.795887 -0.390677 109.447375 79.647531 114.278105 8.994355 -6.391842 -5.877043 -0.001906 -0.007335 -0.000846
-0.764910 126.334496 -5.872585 173.849323 -18.065721 -3.639400 -1.465825 14.725312 1.081591 -0.125638 1.382440 0.108187 -0.256619 2.191966 0.194500 -1.320145 13.183127 0.988990 -6.753154 17.888730 0.894424 -7.536104 -6.689732 2.562905 0.751360 3.493808 -0.187094 0.617087 -14.030330 -1.054344 -55.137473 -37.208712 43.758550 -10.898194 -12.953085 -14.625102 -2.272965 4.328961 -0.829052 13.624871 -14.757421 -3.402014 71.056065 -15.321496 -60.213553 16.899758 -3.357950 -9.443931 7.903337 -53.495282 6.242856 -43.635184 81.344440 -40.132466 -6.010413 -19.314402 5.018632 -0.004212 -0.011407 -0.001869 -2.123265 -54.831664 -0.391685 109.459460 79.648500 114.286458 8.991788 -6.391954 -5.876430 -0.002234 -0.007903 -0.000992
-0.765384 126.330480 -5.873771 173.861628 -18.004724 -3.635030 -1.462486 14.714279 1.075305 -0.133987 1.385740 0.109822 -0.238877 2.248127 0.187175 -1.319920 13.137019 0.988933 -6.716054 17.873818 0.912308 -7.481585 -6.707420 2.561260 0.712604 3.552694 -0.178446 0.452236 -14.130090 -1.057915 -56.019601 -36.872117 43.984476 -11.030313 -13.063256 -14.823665 -2.314685 4.355238 -0.829523 13.803032 -14.781151 -3.408794 71.486538 -15.020855 -60.318075 16.999933 -3.446091 -9.555635 7.900103 -53.562642 6.229700 -43.655398 81.353020 -40.162430 -6.010848 -19.300958 5.018555 -0.002454 -0.011157 -0.001089 -2.137191 -54.890735 -0.397962 109.477313 79.653506 114.304566 8.995745 -6.393270 -5.880506 0.000088 -0.006764 0.000039
-0.764192 126.328453 -5.881026 173.866337 -17.976775 -3.635109 -1.456019 14.790967 1.077661 -0.143319 1.334373 0.112001 -0.240109 2.249494 0.186968 -1.311041 13.140186 0.976095 -6.693681 17.841444 0.929887 -7.407738 -6.702925 2.539288 0.702954 3.520472 -0.169733 0.264172 -14.116475 -1.084450 -56.723696 -36.627121 44.155638 -11.113580 -13.148523 -14.992478 -2.338318 4.382643 -0.826570 13.974165 -14.791269 -3.405920 71.885093 -14.741191 -60.426895 17.091169 -3.528149 -9.657556 7.893271 -53.598960 6.232864 -43.719703 81.358341 -40.230496 -6.007408 -19.283696 5.017813 -0.001517 -0.012618 -0.000673 -2.150263 -54.916774 -0.395202 109.497955 79.658390 114.326431 9.008065 -6.386858 -5.885727 0.001877 -0.010251 0.000833
